<!DOCTYPE svg PUBLIC "-//W3C//DTD SVG 20010904//EN" "http://www.w3.org/TR/2001/REC-SVG-20010904/DTD/svg10.dtd">
<svg version="1.0" xmlns="http://www.w3.org/2000/svg" width="300px" height="190px" viewBox="0 0 3000 1900" preserveAspectRatio="xMidYMid meet">

<g id="layer102" fill="#333" stroke="none">
 <path transform="translate(2500,2200) rotate(200)" d="M1138 1439 c-146 -21 -316 -129 -424 -270 -50 -65 -99 -163 -91 -182 6 -17 238 -89 304 -95 29 -2 72 0 96 7 73 18 209 79 308 137 l94 55 -40 -41 c-49 -50 -166 -141 -219 -168 -37 -20 -37 -21 -15 -26 77 -18 176 -36 259 -46 l95 -12 120 64 c66 36 159 86 208 112 48 26 87 44 87 39 0 -15 -154 -160 -205 -193 l-50 -32 170 6 c169 6 348 24 478 50 90 17 74 5 -48 -37 -191 -66 -462 -107 -715 -107 l-125 -1 63 -59 c35 -32 102 -79 150 -105 l87 -46 -55 5 c-111 11 -235 72 -349 172 -51 44 -68 53 -113 59 -315 39 -601 119 -730 205 -76 50 -128 95 -166 144 l-23 30 -64 -64 c-36 -36 -65 -67 -65 -70 0 -7 105 -73 158 -99 24 -12 94 -40 155 -63 62 -22 117 -45 123 -52 6 -6 18 -36 27 -67 46 -151 182 -281 364 -348 212 -77 424 -76 688 6 205 63 491 191 710 318 224 130 414 274 403 307 -3 9 -35 15 -104 20 -139 10 -241 25 -369 55 -193 45 -309 90 -640 245 -216 102 -277 125 -373 144 -81 15 -81 15 -164 3z"/>
</g>

</svg>